<svg width="24" height="24" viewBox="0 0 24 24" fill="none" xmlns="http://www.w3.org/2000/svg">
    <path d="M17.6299 4.0811C16.1494 2.7411 14.1487 2.0011 11.9979 2.0011C9.84705 2.0011 7.84631 2.7411 6.36576 4.0811C3.73479 6.4211 3.2446 10.0211 5.16532 12.8411L11.1175 21.5611C11.2776 21.8311 11.6177 22.0011 11.9979 22.0011C12.358 22.0011 12.6681 21.8511 12.8782 21.5711L18.8304 12.8411C20.7611 10.0211 20.2609 6.4211 17.6299 4.0811ZM17.5299 12.0711L11.9979 20.1911L6.4658 12.0811C4.94523 9.8311 5.33538 6.9611 7.42616 5.1011C8.64661 4.0211 10.2672 3.4311 11.9979 3.4311C13.7285 3.4311 15.3491 4.0211 16.5696 5.1111C18.6603 6.9611 19.0505 9.8311 17.5299 12.0711Z" fill="#1E244D"/>
    <path d="M11.9977 6.53113C10.3471 6.53113 8.99658 7.88113 8.99658 9.53113C8.99658 11.1811 10.3471 12.5311 11.9977 12.5311C13.6483 12.5311 14.9988 11.1811 14.9988 9.53113C14.9988 7.88113 13.6483 6.53113 11.9977 6.53113ZM11.9977 10.9311C11.2274 10.9311 10.5972 10.3011 10.5972 9.53113C10.5972 8.76113 11.2274 8.13113 11.9977 8.13113C12.768 8.13113 13.3982 8.76113 13.3982 9.53113C13.3982 10.3011 12.768 10.9311 11.9977 10.9311Z" fill="#1E244D"/>
</svg>
